<mxfile host="Electron" agent="Mozilla/5.0 (Windows NT 10.0; Win64; x64) AppleWebKit/537.36 (KHTML, like Gecko) draw.io/24.7.17 Chrome/128.0.6613.36 Electron/32.0.1 Safari/537.36" version="24.7.17">
  <diagram id="C5RBs43oDa-KdzZeNtuy" name="Page-1">
    <mxGraphModel dx="2049" dy="2363" grid="1" gridSize="10" guides="1" tooltips="1" connect="1" arrows="1" fold="1" page="1" pageScale="1" pageWidth="827" pageHeight="1169" math="0" shadow="0">
      <root>
        <mxCell id="WIyWlLk6GJQsqaUBKTNV-0" />
        <mxCell id="WIyWlLk6GJQsqaUBKTNV-1" parent="WIyWlLk6GJQsqaUBKTNV-0" />
        <mxCell id="zkfFHV4jXpPFQw0GAbJ--0" value="Autobus" style="swimlane;fontStyle=0;align=center;verticalAlign=top;childLayout=stackLayout;horizontal=1;startSize=26;horizontalStack=0;resizeParent=1;resizeLast=0;collapsible=1;marginBottom=0;rounded=0;shadow=0;strokeWidth=1;" parent="WIyWlLk6GJQsqaUBKTNV-1" vertex="1">
          <mxGeometry x="660" y="-425" width="190" height="190" as="geometry">
            <mxRectangle x="230" y="140" width="160" height="26" as="alternateBounds" />
          </mxGeometry>
        </mxCell>
        <mxCell id="zkfFHV4jXpPFQw0GAbJ--1" value="Capacity: int" style="text;align=left;verticalAlign=top;spacingLeft=4;spacingRight=4;overflow=hidden;rotatable=0;points=[[0,0.5],[1,0.5]];portConstraint=eastwest;" parent="zkfFHV4jXpPFQw0GAbJ--0" vertex="1">
          <mxGeometry y="26" width="190" height="26" as="geometry" />
        </mxCell>
        <mxCell id="Zzi-WCK0dZShOxPZ4LIm-39" value="PassengerLoad: int" style="text;strokeColor=none;fillColor=none;align=left;verticalAlign=top;spacingLeft=4;spacingRight=4;overflow=hidden;rotatable=0;points=[[0,0.5],[1,0.5]];portConstraint=eastwest;whiteSpace=wrap;html=1;" parent="zkfFHV4jXpPFQw0GAbJ--0" vertex="1">
          <mxGeometry y="52" width="190" height="26" as="geometry" />
        </mxCell>
        <mxCell id="Zzi-WCK0dZShOxPZ4LIm-33" value="BreakTime: int" style="text;strokeColor=none;fillColor=none;align=left;verticalAlign=top;spacingLeft=4;spacingRight=4;overflow=hidden;rotatable=0;points=[[0,0.5],[1,0.5]];portConstraint=eastwest;whiteSpace=wrap;html=1;" parent="zkfFHV4jXpPFQw0GAbJ--0" vertex="1">
          <mxGeometry y="78" width="190" height="26" as="geometry" />
        </mxCell>
        <mxCell id="zkfFHV4jXpPFQw0GAbJ--4" value="" style="line;html=1;strokeWidth=1;align=left;verticalAlign=middle;spacingTop=-1;spacingLeft=3;spacingRight=3;rotatable=0;labelPosition=right;points=[];portConstraint=eastwest;" parent="zkfFHV4jXpPFQw0GAbJ--0" vertex="1">
          <mxGeometry y="104" width="190" height="8" as="geometry" />
        </mxCell>
        <mxCell id="Zzi-WCK0dZShOxPZ4LIm-44" value="getPassengerLoadRatio(): float" style="text;strokeColor=none;fillColor=none;align=left;verticalAlign=top;spacingLeft=4;spacingRight=4;overflow=hidden;rotatable=0;points=[[0,0.5],[1,0.5]];portConstraint=eastwest;whiteSpace=wrap;html=1;" parent="zkfFHV4jXpPFQw0GAbJ--0" vertex="1">
          <mxGeometry y="112" width="190" height="26" as="geometry" />
        </mxCell>
        <mxCell id="Zzi-WCK0dZShOxPZ4LIm-34" value="validateBreakTime(): bool" style="text;strokeColor=none;fillColor=none;align=left;verticalAlign=top;spacingLeft=4;spacingRight=4;overflow=hidden;rotatable=0;points=[[0,0.5],[1,0.5]];portConstraint=eastwest;whiteSpace=wrap;html=1;" parent="zkfFHV4jXpPFQw0GAbJ--0" vertex="1">
          <mxGeometry y="138" width="190" height="26" as="geometry" />
        </mxCell>
        <mxCell id="Zzi-WCK0dZShOxPZ4LIm-31" value="loadPassengers(): void" style="text;strokeColor=none;fillColor=none;align=left;verticalAlign=top;spacingLeft=4;spacingRight=4;overflow=hidden;rotatable=0;points=[[0,0.5],[1,0.5]];portConstraint=eastwest;whiteSpace=wrap;html=1;" parent="zkfFHV4jXpPFQw0GAbJ--0" vertex="1">
          <mxGeometry y="164" width="190" height="26" as="geometry" />
        </mxCell>
        <mxCell id="zkfFHV4jXpPFQw0GAbJ--17" value="Passenger" style="swimlane;fontStyle=0;align=center;verticalAlign=top;childLayout=stackLayout;horizontal=1;startSize=26;horizontalStack=0;resizeParent=1;resizeLast=0;collapsible=1;marginBottom=0;rounded=0;shadow=0;strokeWidth=1;" parent="WIyWlLk6GJQsqaUBKTNV-1" vertex="1">
          <mxGeometry x="980" y="-373" width="160" height="86" as="geometry">
            <mxRectangle x="550" y="140" width="160" height="26" as="alternateBounds" />
          </mxGeometry>
        </mxCell>
        <mxCell id="zkfFHV4jXpPFQw0GAbJ--23" value="" style="line;html=1;strokeWidth=1;align=left;verticalAlign=middle;spacingTop=-1;spacingLeft=3;spacingRight=3;rotatable=0;labelPosition=right;points=[];portConstraint=eastwest;" parent="zkfFHV4jXpPFQw0GAbJ--17" vertex="1">
          <mxGeometry y="26" width="160" height="8" as="geometry" />
        </mxCell>
        <mxCell id="Zzi-WCK0dZShOxPZ4LIm-29" value="generateTimeOfArival(): int" style="text;strokeColor=none;fillColor=none;align=left;verticalAlign=top;spacingLeft=4;spacingRight=4;overflow=hidden;rotatable=0;points=[[0,0.5],[1,0.5]];portConstraint=eastwest;whiteSpace=wrap;html=1;" parent="zkfFHV4jXpPFQw0GAbJ--17" vertex="1">
          <mxGeometry y="34" width="160" height="26" as="geometry" />
        </mxCell>
        <mxCell id="Zzi-WCK0dZShOxPZ4LIm-32" value="getWaitingTime(): int" style="text;strokeColor=none;fillColor=none;align=left;verticalAlign=top;spacingLeft=4;spacingRight=4;overflow=hidden;rotatable=0;points=[[0,0.5],[1,0.5]];portConstraint=eastwest;whiteSpace=wrap;html=1;" parent="zkfFHV4jXpPFQw0GAbJ--17" vertex="1">
          <mxGeometry y="60" width="160" height="26" as="geometry" />
        </mxCell>
        <mxCell id="Zzi-WCK0dZShOxPZ4LIm-0" value="Bus Stop" style="swimlane;fontStyle=0;align=center;verticalAlign=top;childLayout=stackLayout;horizontal=1;startSize=26;horizontalStack=0;resizeParent=1;resizeLast=0;collapsible=1;marginBottom=0;rounded=0;shadow=0;strokeWidth=1;" parent="WIyWlLk6GJQsqaUBKTNV-1" vertex="1">
          <mxGeometry x="980" y="-650" width="160" height="90" as="geometry">
            <mxRectangle x="230" y="140" width="160" height="26" as="alternateBounds" />
          </mxGeometry>
        </mxCell>
        <mxCell id="Zzi-WCK0dZShOxPZ4LIm-1" value="Name: str " style="text;align=left;verticalAlign=top;spacingLeft=4;spacingRight=4;overflow=hidden;rotatable=0;points=[[0,0.5],[1,0.5]];portConstraint=eastwest;" parent="Zzi-WCK0dZShOxPZ4LIm-0" vertex="1">
          <mxGeometry y="26" width="160" height="26" as="geometry" />
        </mxCell>
        <mxCell id="Zzi-WCK0dZShOxPZ4LIm-4" value="" style="line;html=1;strokeWidth=1;align=left;verticalAlign=middle;spacingTop=-1;spacingLeft=3;spacingRight=3;rotatable=0;labelPosition=right;points=[];portConstraint=eastwest;" parent="Zzi-WCK0dZShOxPZ4LIm-0" vertex="1">
          <mxGeometry y="52" width="160" height="8" as="geometry" />
        </mxCell>
        <mxCell id="Zzi-WCK0dZShOxPZ4LIm-17" value="isTerminal(): bool" style="text;strokeColor=none;fillColor=none;align=left;verticalAlign=top;spacingLeft=4;spacingRight=4;overflow=hidden;rotatable=0;points=[[0,0.5],[1,0.5]];portConstraint=eastwest;whiteSpace=wrap;html=1;" parent="Zzi-WCK0dZShOxPZ4LIm-0" vertex="1">
          <mxGeometry y="60" width="160" height="26" as="geometry" />
        </mxCell>
        <mxCell id="Zzi-WCK0dZShOxPZ4LIm-6" value="Bus Line" style="swimlane;fontStyle=0;align=center;verticalAlign=top;childLayout=stackLayout;horizontal=1;startSize=26;horizontalStack=0;resizeParent=1;resizeLast=0;collapsible=1;marginBottom=0;rounded=0;shadow=0;strokeWidth=1;" parent="WIyWlLk6GJQsqaUBKTNV-1" vertex="1">
          <mxGeometry x="632.5" y="-739" width="255" height="268" as="geometry">
            <mxRectangle x="230" y="140" width="160" height="26" as="alternateBounds" />
          </mxGeometry>
        </mxCell>
        <mxCell id="Zzi-WCK0dZShOxPZ4LIm-7" value="Number: int" style="text;align=left;verticalAlign=top;spacingLeft=4;spacingRight=4;overflow=hidden;rotatable=0;points=[[0,0.5],[1,0.5]];portConstraint=eastwest;" parent="Zzi-WCK0dZShOxPZ4LIm-6" vertex="1">
          <mxGeometry y="26" width="255" height="26" as="geometry" />
        </mxCell>
        <mxCell id="Zzi-WCK0dZShOxPZ4LIm-40" value="OptimalPassengerLoadRatio: float" style="text;strokeColor=none;fillColor=none;align=left;verticalAlign=top;spacingLeft=4;spacingRight=4;overflow=hidden;rotatable=0;points=[[0,0.5],[1,0.5]];portConstraint=eastwest;whiteSpace=wrap;html=1;" parent="Zzi-WCK0dZShOxPZ4LIm-6" vertex="1">
          <mxGeometry y="52" width="255" height="26" as="geometry" />
        </mxCell>
        <mxCell id="Zzi-WCK0dZShOxPZ4LIm-45" value="AvareagePassengerLoadRatio: float" style="text;strokeColor=none;fillColor=none;align=left;verticalAlign=top;spacingLeft=4;spacingRight=4;overflow=hidden;rotatable=0;points=[[0,0.5],[1,0.5]];portConstraint=eastwest;whiteSpace=wrap;html=1;" parent="Zzi-WCK0dZShOxPZ4LIm-6" vertex="1">
          <mxGeometry y="78" width="255" height="26" as="geometry" />
        </mxCell>
        <mxCell id="Zzi-WCK0dZShOxPZ4LIm-47" value="PassengerWaitingTime: int" style="text;strokeColor=none;fillColor=none;align=left;verticalAlign=top;spacingLeft=4;spacingRight=4;overflow=hidden;rotatable=0;points=[[0,0.5],[1,0.5]];portConstraint=eastwest;whiteSpace=wrap;html=1;" parent="Zzi-WCK0dZShOxPZ4LIm-6" vertex="1">
          <mxGeometry y="104" width="255" height="26" as="geometry" />
        </mxCell>
        <mxCell id="Zzi-WCK0dZShOxPZ4LIm-46" value="NumberOfBusTrips: int" style="text;strokeColor=none;fillColor=none;align=left;verticalAlign=top;spacingLeft=4;spacingRight=4;overflow=hidden;rotatable=0;points=[[0,0.5],[1,0.5]];portConstraint=eastwest;whiteSpace=wrap;html=1;" parent="Zzi-WCK0dZShOxPZ4LIm-6" vertex="1">
          <mxGeometry y="130" width="255" height="26" as="geometry" />
        </mxCell>
        <mxCell id="Zzi-WCK0dZShOxPZ4LIm-10" value="" style="line;html=1;strokeWidth=1;align=left;verticalAlign=middle;spacingTop=-1;spacingLeft=3;spacingRight=3;rotatable=0;labelPosition=right;points=[];portConstraint=eastwest;" parent="Zzi-WCK0dZShOxPZ4LIm-6" vertex="1">
          <mxGeometry y="156" width="255" height="8" as="geometry" />
        </mxCell>
        <mxCell id="Zzi-WCK0dZShOxPZ4LIm-41" value="acumulatePassengerLoadRatio(): void" style="text;strokeColor=none;fillColor=none;align=left;verticalAlign=top;spacingLeft=4;spacingRight=4;overflow=hidden;rotatable=0;points=[[0,0.5],[1,0.5]];portConstraint=eastwest;whiteSpace=wrap;html=1;" parent="Zzi-WCK0dZShOxPZ4LIm-6" vertex="1">
          <mxGeometry y="164" width="255" height="26" as="geometry" />
        </mxCell>
        <mxCell id="Zzi-WCK0dZShOxPZ4LIm-42" value="acumulatePassengerWaitingTime(): void" style="text;strokeColor=none;fillColor=none;align=left;verticalAlign=top;spacingLeft=4;spacingRight=4;overflow=hidden;rotatable=0;points=[[0,0.5],[1,0.5]];portConstraint=eastwest;whiteSpace=wrap;html=1;" parent="Zzi-WCK0dZShOxPZ4LIm-6" vertex="1">
          <mxGeometry y="190" width="255" height="26" as="geometry" />
        </mxCell>
        <mxCell id="Zzi-WCK0dZShOxPZ4LIm-43" value="acumulateNumberOfBusTrips(): void" style="text;strokeColor=none;fillColor=none;align=left;verticalAlign=top;spacingLeft=4;spacingRight=4;overflow=hidden;rotatable=0;points=[[0,0.5],[1,0.5]];portConstraint=eastwest;whiteSpace=wrap;html=1;" parent="Zzi-WCK0dZShOxPZ4LIm-6" vertex="1">
          <mxGeometry y="216" width="255" height="26" as="geometry" />
        </mxCell>
        <mxCell id="Zzi-WCK0dZShOxPZ4LIm-24" value="getDuration(): int" style="text;strokeColor=none;fillColor=none;align=left;verticalAlign=top;spacingLeft=4;spacingRight=4;overflow=hidden;rotatable=0;points=[[0,0.5],[1,0.5]];portConstraint=eastwest;whiteSpace=wrap;html=1;" parent="Zzi-WCK0dZShOxPZ4LIm-6" vertex="1">
          <mxGeometry y="242" width="255" height="26" as="geometry" />
        </mxCell>
        <mxCell id="Zzi-WCK0dZShOxPZ4LIm-16" value="" style="edgeStyle=entityRelationEdgeStyle;fontSize=12;html=1;endArrow=ERmandOne;startArrow=ERmandOne;rounded=0;" parent="WIyWlLk6GJQsqaUBKTNV-1" source="Zzi-WCK0dZShOxPZ4LIm-0" target="Zzi-WCK0dZShOxPZ4LIm-0" edge="1">
          <mxGeometry width="100" height="100" relative="1" as="geometry">
            <mxPoint x="700" y="-400" as="sourcePoint" />
            <mxPoint x="800" y="-500" as="targetPoint" />
          </mxGeometry>
        </mxCell>
        <mxCell id="Zzi-WCK0dZShOxPZ4LIm-18" value="" style="fontSize=12;html=1;endArrow=ERoneToMany;rounded=0;" parent="WIyWlLk6GJQsqaUBKTNV-1" source="Zzi-WCK0dZShOxPZ4LIm-6" target="Zzi-WCK0dZShOxPZ4LIm-0" edge="1">
          <mxGeometry width="100" height="100" relative="1" as="geometry">
            <mxPoint x="1020" y="-500" as="sourcePoint" />
            <mxPoint x="1120" y="-600" as="targetPoint" />
          </mxGeometry>
        </mxCell>
        <mxCell id="Zzi-WCK0dZShOxPZ4LIm-19" value="Next Stop" style="swimlane;fontStyle=0;childLayout=stackLayout;horizontal=1;startSize=26;horizontalStack=0;resizeParent=1;resizeParentMax=0;resizeLast=0;collapsible=1;marginBottom=0;align=center;fontSize=14;" parent="WIyWlLk6GJQsqaUBKTNV-1" vertex="1">
          <mxGeometry x="1260" y="-633" width="160" height="56" as="geometry" />
        </mxCell>
        <mxCell id="Zzi-WCK0dZShOxPZ4LIm-20" value="TimeToTravel: int" style="text;strokeColor=none;fillColor=none;spacingLeft=4;spacingRight=4;overflow=hidden;rotatable=0;points=[[0,0.5],[1,0.5]];portConstraint=eastwest;fontSize=12;whiteSpace=wrap;html=1;" parent="Zzi-WCK0dZShOxPZ4LIm-19" vertex="1">
          <mxGeometry y="26" width="160" height="30" as="geometry" />
        </mxCell>
        <mxCell id="Zzi-WCK0dZShOxPZ4LIm-23" value="" style="endArrow=classic;html=1;rounded=0;" parent="WIyWlLk6GJQsqaUBKTNV-1" source="Zzi-WCK0dZShOxPZ4LIm-19" edge="1">
          <mxGeometry width="50" height="50" relative="1" as="geometry">
            <mxPoint x="1050" y="-520" as="sourcePoint" />
            <mxPoint x="1160" y="-605" as="targetPoint" />
          </mxGeometry>
        </mxCell>
        <mxCell id="Zzi-WCK0dZShOxPZ4LIm-26" value="" style="fontSize=12;html=1;endArrow=ERoneToMany;rounded=0;" parent="WIyWlLk6GJQsqaUBKTNV-1" source="Zzi-WCK0dZShOxPZ4LIm-6" target="zkfFHV4jXpPFQw0GAbJ--0" edge="1">
          <mxGeometry width="100" height="100" relative="1" as="geometry">
            <mxPoint x="580" y="-430" as="sourcePoint" />
            <mxPoint x="680" y="-530" as="targetPoint" />
          </mxGeometry>
        </mxCell>
        <mxCell id="Zzi-WCK0dZShOxPZ4LIm-27" value="" style="fontSize=12;html=1;endArrow=ERoneToMany;rounded=0;" parent="WIyWlLk6GJQsqaUBKTNV-1" source="Zzi-WCK0dZShOxPZ4LIm-0" target="zkfFHV4jXpPFQw0GAbJ--17" edge="1">
          <mxGeometry width="100" height="100" relative="1" as="geometry">
            <mxPoint x="910" y="-540" as="sourcePoint" />
            <mxPoint x="910" y="-450" as="targetPoint" />
          </mxGeometry>
        </mxCell>
        <mxCell id="Zzi-WCK0dZShOxPZ4LIm-28" value="" style="fontSize=12;html=1;endArrow=ERoneToMany;rounded=0;" parent="WIyWlLk6GJQsqaUBKTNV-1" source="zkfFHV4jXpPFQw0GAbJ--0" target="zkfFHV4jXpPFQw0GAbJ--17" edge="1">
          <mxGeometry width="100" height="100" relative="1" as="geometry">
            <mxPoint x="900" y="-560" as="sourcePoint" />
            <mxPoint x="900" y="-470" as="targetPoint" />
          </mxGeometry>
        </mxCell>
        <mxCell id="Zzi-WCK0dZShOxPZ4LIm-36" style="rounded=0;orthogonalLoop=1;jettySize=auto;html=1;" parent="WIyWlLk6GJQsqaUBKTNV-1" source="Zzi-WCK0dZShOxPZ4LIm-35" target="Zzi-WCK0dZShOxPZ4LIm-34" edge="1">
          <mxGeometry relative="1" as="geometry" />
        </mxCell>
        <mxCell id="Zzi-WCK0dZShOxPZ4LIm-35" value="Na každé 4 hodiny si musí vodič spraviť minimálne 30 minút prestávku" style="shape=note;size=20;whiteSpace=wrap;html=1;fillColor=#fff2cc;strokeColor=#d6b656;" parent="WIyWlLk6GJQsqaUBKTNV-1" vertex="1">
          <mxGeometry x="140" y="-331" width="140" height="114" as="geometry" />
        </mxCell>
        <mxCell id="Zzi-WCK0dZShOxPZ4LIm-38" style="rounded=0;orthogonalLoop=1;jettySize=auto;html=1;" parent="WIyWlLk6GJQsqaUBKTNV-1" source="Zzi-WCK0dZShOxPZ4LIm-37" target="Zzi-WCK0dZShOxPZ4LIm-24" edge="1">
          <mxGeometry relative="1" as="geometry" />
        </mxCell>
        <mxCell id="Zzi-WCK0dZShOxPZ4LIm-37" value="&lt;div&gt;Vyrovnávacia doba:&lt;/div&gt;&lt;div&gt;na konečnej zastávke musí autobus čakať aspoň 5 minút&lt;br&gt;&lt;/div&gt;" style="shape=note;size=20;whiteSpace=wrap;html=1;fillColor=#fff2cc;strokeColor=#d6b656;" parent="WIyWlLk6GJQsqaUBKTNV-1" vertex="1">
          <mxGeometry x="140" y="-546.5" width="140" height="125" as="geometry" />
        </mxCell>
        <mxCell id="Zzi-WCK0dZShOxPZ4LIm-49" style="rounded=0;orthogonalLoop=1;jettySize=auto;html=1;" parent="WIyWlLk6GJQsqaUBKTNV-1" source="Zzi-WCK0dZShOxPZ4LIm-48" target="Zzi-WCK0dZShOxPZ4LIm-6" edge="1">
          <mxGeometry relative="1" as="geometry" />
        </mxCell>
        <mxCell id="Zzi-WCK0dZShOxPZ4LIm-48" value="&lt;div&gt;&amp;nbsp;Ideálny stav:&lt;br&gt;&lt;/div&gt;&lt;div&gt;AvareagePassengerLoadRatio čo najbližšie ku OptimalPassengerLoadRatio&lt;br&gt;&lt;/div&gt;&lt;div&gt;čo najnižší PassengerWaitingTime&lt;/div&gt;&lt;div&gt;čo najnižší NumberOfBusTrips &lt;/div&gt;" style="shape=note;size=20;whiteSpace=wrap;html=1;fillColor=#fff2cc;strokeColor=#d6b656;" parent="WIyWlLk6GJQsqaUBKTNV-1" vertex="1">
          <mxGeometry x="140" y="-870" width="450" height="100" as="geometry" />
        </mxCell>
        <mxCell id="Zzi-WCK0dZShOxPZ4LIm-50" value="TimeTable Row" style="swimlane;fontStyle=0;align=center;verticalAlign=top;childLayout=stackLayout;horizontal=1;startSize=26;horizontalStack=0;resizeParent=1;resizeLast=0;collapsible=1;marginBottom=0;rounded=0;shadow=0;strokeWidth=1;" parent="WIyWlLk6GJQsqaUBKTNV-1" vertex="1">
          <mxGeometry x="930" y="-870" width="260" height="164" as="geometry">
            <mxRectangle x="230" y="140" width="160" height="26" as="alternateBounds" />
          </mxGeometry>
        </mxCell>
        <mxCell id="Zzi-WCK0dZShOxPZ4LIm-51" value="hour: int" style="text;align=left;verticalAlign=top;spacingLeft=4;spacingRight=4;overflow=hidden;rotatable=0;points=[[0,0.5],[1,0.5]];portConstraint=eastwest;" parent="Zzi-WCK0dZShOxPZ4LIm-50" vertex="1">
          <mxGeometry y="26" width="260" height="26" as="geometry" />
        </mxCell>
        <mxCell id="Zzi-WCK0dZShOxPZ4LIm-56" value="numberOfBusArivalsPerHour: int" style="text;strokeColor=none;fillColor=none;align=left;verticalAlign=top;spacingLeft=4;spacingRight=4;overflow=hidden;rotatable=0;points=[[0,0.5],[1,0.5]];portConstraint=eastwest;whiteSpace=wrap;html=1;" parent="Zzi-WCK0dZShOxPZ4LIm-50" vertex="1">
          <mxGeometry y="52" width="260" height="26" as="geometry" />
        </mxCell>
        <mxCell id="Zzi-WCK0dZShOxPZ4LIm-58" value="busArivalTimes: list(int)" style="text;strokeColor=none;fillColor=none;align=left;verticalAlign=top;spacingLeft=4;spacingRight=4;overflow=hidden;rotatable=0;points=[[0,0.5],[1,0.5]];portConstraint=eastwest;whiteSpace=wrap;html=1;" parent="Zzi-WCK0dZShOxPZ4LIm-50" vertex="1">
          <mxGeometry y="78" width="260" height="26" as="geometry" />
        </mxCell>
        <mxCell id="Zzi-WCK0dZShOxPZ4LIm-57" value="propabilityOfPassengerRandomArivals: float" style="text;strokeColor=none;fillColor=none;align=left;verticalAlign=top;spacingLeft=4;spacingRight=4;overflow=hidden;rotatable=0;points=[[0,0.5],[1,0.5]];portConstraint=eastwest;whiteSpace=wrap;html=1;" parent="Zzi-WCK0dZShOxPZ4LIm-50" vertex="1">
          <mxGeometry y="104" width="260" height="26" as="geometry" />
        </mxCell>
        <mxCell id="Zzi-WCK0dZShOxPZ4LIm-52" value="" style="line;html=1;strokeWidth=1;align=left;verticalAlign=middle;spacingTop=-1;spacingLeft=3;spacingRight=3;rotatable=0;labelPosition=right;points=[];portConstraint=eastwest;" parent="Zzi-WCK0dZShOxPZ4LIm-50" vertex="1">
          <mxGeometry y="130" width="260" height="8" as="geometry" />
        </mxCell>
        <mxCell id="Zzi-WCK0dZShOxPZ4LIm-53" value="moveBusArivalTimes(): void" style="text;strokeColor=none;fillColor=none;align=left;verticalAlign=top;spacingLeft=4;spacingRight=4;overflow=hidden;rotatable=0;points=[[0,0.5],[1,0.5]];portConstraint=eastwest;whiteSpace=wrap;html=1;" parent="Zzi-WCK0dZShOxPZ4LIm-50" vertex="1">
          <mxGeometry y="138" width="260" height="26" as="geometry" />
        </mxCell>
        <mxCell id="Zzi-WCK0dZShOxPZ4LIm-55" style="rounded=0;orthogonalLoop=1;jettySize=auto;html=1;" parent="WIyWlLk6GJQsqaUBKTNV-1" source="Zzi-WCK0dZShOxPZ4LIm-54" target="Zzi-WCK0dZShOxPZ4LIm-0" edge="1">
          <mxGeometry relative="1" as="geometry" />
        </mxCell>
        <mxCell id="Zzi-WCK0dZShOxPZ4LIm-54" value="Nepredstavuje fyzickú zastávku, iba jednotlivé zastavenia autobusov danej linky, preto vzťah 1:N s autobusovou linkou." style="shape=note;size=20;whiteSpace=wrap;html=1;fillColor=#fff2cc;strokeColor=#d6b656;" parent="WIyWlLk6GJQsqaUBKTNV-1" vertex="1">
          <mxGeometry x="1340" y="-480" width="140" height="140" as="geometry" />
        </mxCell>
        <mxCell id="Zzi-WCK0dZShOxPZ4LIm-59" value="" style="fontSize=12;html=1;endArrow=ERoneToMany;rounded=0;" parent="WIyWlLk6GJQsqaUBKTNV-1" source="Zzi-WCK0dZShOxPZ4LIm-0" target="Zzi-WCK0dZShOxPZ4LIm-50" edge="1">
          <mxGeometry width="100" height="100" relative="1" as="geometry">
            <mxPoint x="1060" y="-420" as="sourcePoint" />
            <mxPoint x="1160" y="-520" as="targetPoint" />
          </mxGeometry>
        </mxCell>
        <mxCell id="Zzi-WCK0dZShOxPZ4LIm-60" value="Poriešiť výstupy cestujúcich" style="shape=note;size=20;whiteSpace=wrap;html=1;fillColor=#f8cecc;strokeColor=#b85450;" parent="WIyWlLk6GJQsqaUBKTNV-1" vertex="1">
          <mxGeometry x="150" y="-720" width="100" height="100" as="geometry" />
        </mxCell>
      </root>
    </mxGraphModel>
  </diagram>
</mxfile>
